{
    "asset" : {
        "generator" : "Khronos glTF Blender I/O v3.4.49",
        "version" : "2.0"
    },
    "scene" : 0,
    "scenes" : [
        {
            "name" : "Scene",
            "nodes" : [
                0
            ]
        }
    ],
    "nodes" : [
        {
            "mesh" : 0,
            "name" : "Mball.005",
            "scale" : [
                0.2667943835258484,
                0.2667943835258484,
                0.2667943835258484
            ],
            "translation" : [
                0,
                0.2943466901779175,
                0.08229047060012817
            ]
        }
    ],
    "materials" : [
        {
            "doubleSided" : true,
            "name" : "Material.002",
            "pbrMetallicRoughness" : {
                "baseColorFactor" : [
                    0.800000011920929,
                    0.800000011920929,
                    0.800000011920929,
                    1
                ],
                "metallicFactor" : 0,
                "roughnessFactor" : 0.3499999940395355
            }
        }
    ],
    "meshes" : [
        {
            "name" : "Mball",
            "primitives" : [
                {
                    "attributes" : {
                        "POSITION" : 0,
                        "NORMAL" : 1
                    },
                    "indices" : 2,
                    "material" : 0
                }
            ]
        }
    ],
    "accessors" : [
        {
            "bufferView" : 0,
            "componentType" : 5126,
            "count" : 26848,
            "max" : [
                1.3393149375915527,
                1.1493586301803589,
                2.6323604583740234
            ],
            "min" : [
                -1.3393149375915527,
                -2.469482183456421,
                -2.7016730308532715
            ],
            "type" : "VEC3"
        },
        {
            "bufferView" : 1,
            "componentType" : 5126,
            "count" : 26848,
            "type" : "VEC3"
        },
        {
            "bufferView" : 2,
            "componentType" : 5123,
            "count" : 161076,
            "type" : "SCALAR"
        }
    ],
    "bufferViews" : [
        {
            "buffer" : 0,
            "byteLength" : 322176,
            "byteOffset" : 0,
            "target" : 34962
        },
        {
            "buffer" : 0,
            "byteLength" : 322176,
            "byteOffset" : 322176,
            "target" : 34962
        },
        {
            "buffer" : 0,
            "byteLength" : 322152,
            "byteOffset" : 644352,
            "target" : 34963
        }
    ],
    "buffers" : [
        {
            "byteLength" : 966504,
            "uri" : "data:application/octet-stream;base64,"
        }
    ]
}
