{
    "asset" : {
        "generator" : "Khronos glTF Blender I/O v3.4.49",
        "version" : "2.0"
    },
    "scene" : 0,
    "scenes" : [
        {
            "name" : "Scene",
            "nodes" : [
                0
            ]
        }
    ],
    "nodes" : [
        {
            "mesh" : 0,
            "name" : "Moon",
            "rotation" : [
                -0.0017066329019144177,
                0.2643526494503021,
                -0.006226095370948315,
                0.9644045829772949
            ]
        }
    ],
    "meshes" : [
        {
            "name" : "Moon",
            "primitives" : [
                {
                    "attributes" : {
                        "POSITION" : 0,
                        "TEXCOORD_0" : 1,
                        "NORMAL" : 2
                    },
                    "indices" : 3
                }
            ]
        }
    ],
    "accessors" : [
        {
            "bufferView" : 0,
            "componentType" : 5126,
            "count" : 15262,
            "max" : [
                0.8938440084457397,
                0.8669483065605164,
                0.9018140435218811
            ],
            "min" : [
                -0.8669484257698059,
                -0.8669483065605164,
                -0.8866856098175049
            ],
            "type" : "VEC3"
        },
        {
            "bufferView" : 1,
            "componentType" : 5126,
            "count" : 15262,
            "type" : "VEC2"
        },
        {
            "bufferView" : 2,
            "componentType" : 5126,
            "count" : 15262,
            "type" : "VEC3"
        },
        {
            "bufferView" : 3,
            "componentType" : 5123,
            "count" : 77760,
            "type" : "SCALAR"
        }
    ],
    "bufferViews" : [
        {
            "buffer" : 0,
            "byteLength" : 183144,
            "byteOffset" : 0,
            "target" : 34962
        },
        {
            "buffer" : 0,
            "byteLength" : 122096,
            "byteOffset" : 183144,
            "target" : 34962
        },
        {
            "buffer" : 0,
            "byteLength" : 183144,
            "byteOffset" : 305240,
            "target" : 34962
        },
        {
            "buffer" : 0,
            "byteLength" : 155520,
            "byteOffset" : 488384,
            "target" : 34963
        }
    ],
    "buffers" : [
        {
            "byteLength" : 643904,
            "uri" : "data:application/octet-stream;base64,"
        }
    ]
}
